 <svg width="16" xmlns="http://www.w3.org/2000/svg" height="16" id="screenshot-6b3ffe85-5267-8025-8005-44030e2cb0a1" viewBox="-889 -420.357 16 16" style="-webkit-print-color-adjust::exact" xmlns:xlink="http://www.w3.org/1999/xlink" fill="none" version="1.1">
        <g id="shape-6b3ffe85-5267-8025-8005-44030e2cb0a1" style="fill:#000000" class="bi bi-card-list" width="16" height="16" rx="0" ry="0">
          <defs></defs>
          <g id="shape-6b3ffe85-5267-8025-8005-44030e2cb0a2" style="display:none">
            <defs></defs>
            <g class="fills" id="fills-6b3ffe85-5267-8025-8005-44030e2cb0a2">
              <rect rx="0" ry="0" x="-889" y="-420.35714285714283" transform="matrix(1.000000, 0.000000, 0.000000, 1.000000, 0.000000, 0.000000)" width="16" height="16" fill="none" style="fill:none"></rect>
            </g>
          </g>
          <g id="shape-6b3ffe85-5267-8025-8005-44030e2cb0a3">
            <defs></defs>
            <g class="fills" id="fills-6b3ffe85-5267-8025-8005-44030e2cb0a3">
              <path d="M-874.500,-417.357C-874.224,-417.357,-874.000,-417.133,-874.000,-416.857L-874.000,-407.857C-874.000,-407.581,-874.224,-407.357,-874.500,-407.357L-887.500,-407.357C-887.776,-407.357,-888.000,-407.581,-888.000,-407.857L-888.000,-416.857C-888.000,-417.133,-887.776,-417.357,-887.500,-417.357L-874.500,-417.357ZZM-887.500,-418.357C-888.328,-418.357,-889.000,-417.686,-889.000,-416.857L-889.000,-407.857C-889.000,-407.029,-888.328,-406.357,-887.500,-406.357L-874.500,-406.357C-873.672,-406.357,-873.000,-407.029,-873.000,-407.857L-873.000,-416.857C-873.000,-417.686,-873.672,-418.357,-874.500,-418.357L-887.500,-418.357ZZ" style="fill:#000000"></path>
            </g>
          </g>
          <g id="shape-6b3ffe85-5267-8025-8005-44030e2cb0a4">
            <defs></defs>
            <g class="fills" id="fills-6b3ffe85-5267-8025-8005-44030e2cb0a4">
              <path d="M-884.000,-412.357C-884.000,-412.633,-883.776,-412.857,-883.500,-412.857L-876.500,-412.857C-876.224,-412.857,-876.000,-412.633,-876.000,-412.357C-876.000,-412.081,-876.224,-411.857,-876.500,-411.857L-883.500,-411.857C-883.776,-411.857,-884.000,-412.081,-884.000,-412.357ZZM-884.000,-414.857C-884.000,-415.133,-883.776,-415.357,-883.500,-415.357L-876.500,-415.357C-876.224,-415.357,-876.000,-415.133,-876.000,-414.857C-876.000,-414.581,-876.224,-414.357,-876.500,-414.357L-883.500,-414.357C-883.776,-414.357,-884.000,-414.581,-884.000,-414.857ZZM-884.000,-409.857C-884.000,-410.133,-883.776,-410.357,-883.500,-410.357L-876.500,-410.357C-876.224,-410.357,-876.000,-410.133,-876.000,-409.857C-876.000,-409.581,-876.224,-409.357,-876.500,-409.357L-883.500,-409.357C-883.776,-409.357,-884.000,-409.581,-884.000,-409.857ZZM-885.000,-414.857C-885.000,-414.581,-885.224,-414.357,-885.500,-414.357C-885.776,-414.357,-886.000,-414.581,-886.000,-414.857C-886.000,-415.133,-885.776,-415.357,-885.500,-415.357C-885.224,-415.357,-885.000,-415.133,-885.000,-414.857ZZM-885.000,-412.357C-885.000,-412.081,-885.224,-411.857,-885.500,-411.857C-885.776,-411.857,-886.000,-412.081,-886.000,-412.357C-886.000,-412.633,-885.776,-412.857,-885.500,-412.857C-885.224,-412.857,-885.000,-412.633,-885.000,-412.357ZZM-885.000,-409.857C-885.000,-409.581,-885.224,-409.357,-885.500,-409.357C-885.776,-409.357,-886.000,-409.581,-886.000,-409.857C-886.000,-410.133,-885.776,-410.357,-885.500,-410.357C-885.224,-410.357,-885.000,-410.133,-885.000,-409.857ZZ" style="fill:#000000"></path>
            </g>
          </g>
        </g>
      </svg>
